<?xml version="1.0" encoding="UTF-8" standalone="no"?>
<!-- Created with Inkscape (http://www.inkscape.org/) -->

<svg
   version="1.1"
   id="svg2"
   width="62.866669"
   height="23.719999"
   viewBox="0 0 62.866669 23.719999"
   xmlns="http://www.w3.org/2000/svg"
   xmlns:svg="http://www.w3.org/2000/svg">
  <defs
     id="defs6">
    <clipPath
       clipPathUnits="userSpaceOnUse"
       id="clipPath18">
      <path
         d="M 0,0 H 375 V 125 H 0 Z"
         clip-rule="evenodd"
         id="path16" />
    </clipPath>
    <clipPath
       clipPathUnits="userSpaceOnUse"
       id="clipPath30">
      <path
         d="M 0,0 H 375 V 125 H 0 Z"
         clip-rule="evenodd"
         id="path28" />
    </clipPath>
    <clipPath
       clipPathUnits="userSpaceOnUse"
       id="clipPath42">
      <path
         d="m 72.546936,33.814728 h 87.382994 v 43.75 H 72.546936 Z"
         clip-rule="evenodd"
         id="path40" />
    </clipPath>
    <clipPath
       clipPathUnits="userSpaceOnUse"
       id="clipPath54">
      <path
         d="m 72.487061,33.814728 h 87.499999 v 43.75 H 72.487061 Z"
         clip-rule="evenodd"
         id="path52" />
    </clipPath>
    <clipPath
       clipPathUnits="userSpaceOnUse"
       id="clipPath68">
      <path
         d="M 72.546936,47.32423 H 116.3859 V 77.564728 H 72.546936 Z"
         clip-rule="evenodd"
         id="path66" />
    </clipPath>
    <clipPath
       clipPathUnits="userSpaceOnUse"
       id="clipPath80">
      <path
         d="m 72.487061,33.814728 h 87.499999 v 43.75 H 72.487061 Z"
         clip-rule="evenodd"
         id="path78" />
    </clipPath>
    <clipPath
       clipPathUnits="userSpaceOnUse"
       id="clipPath92">
      <path
         d="m 116.11529,47.32423 h 43.81464 v 30.240498 h -43.81464 z"
         clip-rule="evenodd"
         id="path90" />
    </clipPath>
    <clipPath
       clipPathUnits="userSpaceOnUse"
       id="clipPath104">
      <path
         d="m 72.487061,33.814728 h 87.499999 v 43.75 H 72.487061 Z"
         clip-rule="evenodd"
         id="path102" />
    </clipPath>
    <clipPath
       clipPathUnits="userSpaceOnUse"
       id="clipPath116">
      <path
         d="m 72.817551,76.161819 h 86.866089 v 1.402908 H 72.817551 Z"
         clip-rule="evenodd"
         id="path114" />
    </clipPath>
    <clipPath
       clipPathUnits="userSpaceOnUse"
       id="clipPath128">
      <path
         d="m 72.487061,33.814728 h 87.499999 v 43.75 H 72.487061 Z"
         clip-rule="evenodd"
         id="path126" />
    </clipPath>
    <clipPath
       clipPathUnits="userSpaceOnUse"
       id="clipPath140">
      <path
         d="m 116.69983,71.636162 h 184.375 v 25.489082 h -184.375 z"
         clip-rule="evenodd"
         id="path138" />
    </clipPath>
    <clipPath
       clipPathUnits="userSpaceOnUse"
       id="clipPath148">
      <path
         d="M 0,0 H 186 V 27 H 0 Z"
         id="path146" />
    </clipPath>
    <clipPath
       clipPathUnits="userSpaceOnUse"
       id="clipPath164">
      <path
         d="M 0,0 H 375 V 125 H 0 Z"
         clip-rule="evenodd"
         id="path162" />
    </clipPath>
    <clipPath
       clipPathUnits="userSpaceOnUse"
       id="clipPath172">
      <path
         d="M 0,0 H 144 V 30 H 0 Z"
         id="path170" />
    </clipPath>
    <clipPath
       clipPathUnits="userSpaceOnUse"
       id="clipPath190">
      <path
         d="m 116.69983,87.82917 h 140.625 v 9.375 h -140.625 z"
         clip-rule="evenodd"
         id="path188" />
    </clipPath>
    <clipPath
       clipPathUnits="userSpaceOnUse"
       id="clipPath198">
      <path
         d="M 0,0 H 140 V 7 H 0 Z"
         id="path196" />
    </clipPath>
    <clipPath
       clipPathUnits="userSpaceOnUse"
       id="clipPath202">
      <path
         d="M 0.6763916,-1 H 141 V 7.2041702 H 0.6763916 Z"
         clip-rule="evenodd"
         id="path200" />
    </clipPath>
  </defs>
  <g
     id="g8"
     transform="matrix(1.3333333,0,0,-1.3333333,-21.8,41.586667)">
    <g
       id="g10"
       transform="matrix(0.23999999,0,0,-0.23999999,0,37.919998)">
      <g
         id="g12">
        <g
           id="g14"
           clip-path="url(#clipPath18)">
          <g
             id="g20"
             transform="scale(3.125)">
            <path
               d="M 0,0 H 120 V 40 H 0 Z"
               style="fill:#ffffff;fill-opacity:1;fill-rule:nonzero;stroke:none"
               id="path22" />
          </g>
        </g>
      </g>
      <g
         id="g24">
        <g
           id="g26"
           clip-path="url(#clipPath30)">
          <g
             id="g32"
             transform="scale(3.125)">
            <path
               d="M 0,0 H 120 V 40 H 0 Z"
               style="fill:#ffffff;fill-opacity:1;fill-rule:nonzero;stroke:none"
               id="path34" />
          </g>
        </g>
      </g>
      <g
         id="g36">
        <g
           id="g38"
           clip-path="url(#clipPath42)">
          <g
             id="g44"
             transform="matrix(0.13530543,0,0,0.12989906,72.546936,33.814728)">
            <path
               d="M 587.68359,272.92969 C 530.84375,255.54688 428.07031,220.59375 394.47656,153.83594 369.58984,104.37891 338.39063,103.33203 327.17578,104.52734 V 91.730469 c 0,-5.722656 1.98047,-11.261719 5.57422,-15.585938 5.61328,-6.753906 11.26563,-15.042968 15.01953,-20.804687 4.82031,-7.402344 6.78125,-16.113281 5.52735,-24.523438 C 350.50391,12.09375 336.37109,0 317.30078,0 c -21.53515,0 -30.1289,14.828125 -30.90234,16.25 -11.10938,19.558594 -0.0274,38.28125 0.44922,39.070313 1.15234,1.898437 3.55468,2.578125 5.51562,1.617187 0.11328,-0.05469 0.22656,-0.117187 0.33594,-0.183594 2.01172,-1.21875 2.65625,-3.835937 1.4375,-5.851562 -0.0937,-0.148438 -9.01172,-15.207031 -0.3125,-30.480469 0.0234,-0.04297 0.0508,-0.08594 0.0742,-0.132812 0.0586,-0.117188 6.36328,-11.7695317 23.40234,-11.7695317 14.83594,0 25.39844,9.0234377 27.57031,23.5507817 0.94532,6.355468 -0.55859,12.964843 -4.24218,18.621093 -3.62891,5.574219 -9.07813,13.570313 -14.42969,20.007813 -4.86328,5.851562 -7.54297,13.320312 -7.54297,21.03125 v 12.800781 c -11.20312,-1.19922 -42.41406,-0.16797 -67.30859,49.30469 -33.59375,66.75781 -136.36719,101.71094 -193.207035,119.09375 -69.871094,21.37109 -58.28125,53.02734 -56.058594,63.91015 l 39.453125,-19.80859 13.601563,-0.0469 267.453121,-126.11719 268.09766,126.11719 13.60156,0.0469 H 41.535136 L 21.808574,326.9375 2.082011,336.83984 H 643.73826 c 2.22656,-10.88281 13.8125,-42.53906 -56.05469,-63.91015"
               style="fill:#d8974e;fill-opacity:1;fill-rule:nonzero;stroke:none"
               id="path46" />
          </g>
        </g>
      </g>
      <g
         id="g48">
        <g
           id="g50"
           clip-path="url(#clipPath54)">
          <g
             id="g56"
             transform="matrix(0.13530543,0,0,0.12989906,72.546936,33.814728)">
            <path
               d="m 329.47656,73.421875 c 5.57032,-6.703125 11.22657,-15.035156 14.72266,-20.40625 4.15234,-6.378906 6.00781,-14.046875 4.88281,-21.570312 -2.5664,-17.210938 -15.25781,-27.1835942 -31.78125,-27.1835942 -19.8164,0 -27.17578,14.0507812 -27.17578,14.0507812 -8.94922,15.710938 0.15234,34.683594 2.23828,38.625 0.11328,-0.05469 0.22656,-0.117187 0.33594,-0.183594 2.01172,-1.21875 2.65625,-3.835937 1.4375,-5.851562 -0.0937,-0.148438 -9.01172,-15.207031 -0.3125,-30.480469 0.0234,-0.04297 0.0508,-0.08594 0.0742,-0.132812 0.0586,-0.117188 6.36328,-11.7695317 23.40234,-11.7695317 14.83594,0 25.39844,9.0234377 27.57031,23.5507817 0.94532,6.355468 -0.55859,12.964843 -4.24218,18.621093 -3.62891,5.574219 -9.07813,13.570313 -14.42969,20.007813 -4.86328,5.851562 -7.54297,13.320312 -7.54297,21.03125 v 31.765621 c 0,2.34375 1.89453,4.2461 4.23438,4.25782 l 0.0273,-36.023441 c 0,-6.675781 2.28906,-13.171875 6.55859,-18.308594"
               style="fill:#9f9d9d;fill-opacity:1;fill-rule:nonzero;stroke:none"
               id="path58" />
            <path
               d="M 353.29688,30.816406 C 350.50391,12.09375 336.37109,0 317.30078,0 c -21.53515,0 -30.1289,14.828125 -30.90234,16.25 -11.10938,19.558594 -0.0274,38.28125 0.44922,39.070313 1.15234,1.898437 3.55468,2.578125 5.51562,1.617187 -2.08594,-3.941406 -11.1875,-22.914062 -2.23828,-38.625 0,0 7.35938,-14.0507812 27.17578,-14.0507812 16.52344,0 29.21485,9.9726562 31.78125,27.1835942 1.125,7.523437 -0.73047,15.191406 -4.88281,21.570312 -3.49609,5.371094 -9.15234,13.703125 -14.72266,20.40625 -4.26953,5.136719 -6.55859,11.632813 -6.55859,18.308594 l -0.0273,36.023441 c 0.008,0 0.0156,0.004 0.0273,0.004 2.35156,0 4.25781,-1.90625 4.25781,-4.26172 V 91.730569 c 0,-5.722656 1.98047,-11.261719 5.57422,-15.585938 5.61328,-6.753906 11.26563,-15.042968 15.01953,-20.804687 4.82031,-7.402344 6.78125,-16.113281 5.52735,-24.523438"
               style="fill:#b8b6b5;fill-opacity:1;fill-rule:nonzero;stroke:none"
               id="path60" />
          </g>
        </g>
      </g>
      <g
         id="g62">
        <g
           id="g64"
           clip-path="url(#clipPath68)">
          <g
             id="g70"
             transform="matrix(0.13530543,0,0,0.12989906,72.546936,33.814728)">
            <path
               d="M 323.20313,175.60938 41.535156,317.03125 2.082031,336.83984 c -2.222656,-10.88281 -13.8125,-42.53906 56.058594,-63.91015 56.839845,-17.38281 159.613285,-52.33594 193.207035,-119.09375 25.35156,-50.38672 57.26172,-50.52735 67.91406,-49.23828 1.73437,0.21093 2.99219,0.50781 3.69922,0.69922 l 0.24219,70.3125"
               style="fill:#ffd08d;fill-opacity:1;fill-rule:nonzero;stroke:none"
               id="path72" />
          </g>
        </g>
      </g>
      <g
         id="g74">
        <g
           id="g76"
           clip-path="url(#clipPath80)">
          <g
             id="g82"
             transform="matrix(0.13530543,0,0,0.12989906,72.546936,33.814728)">
            <path
               d="m 322.58984,190.86719 -267.453121,126.11719 -13.601563,0.0469 281.082034,-141.42187 -0.0274,15.25781"
               style="fill:#f0b469;fill-opacity:1;fill-rule:nonzero;stroke:none"
               id="path84" />
          </g>
        </g>
      </g>
      <g
         id="g86">
        <g
           id="g88"
           clip-path="url(#clipPath92)">
          <g
             id="g94"
             transform="matrix(0.13530543,0,0,0.12989906,72.546936,33.814728)">
            <path
               d="m 322.61719,175.60938 281.67187,141.42187 39.45313,19.80859 c 2.22265,-10.88281 13.80859,-42.53906 -56.0586,-63.91015 -56.83984,-17.38281 -159.61328,-52.33594 -193.20703,-119.09375 -25.35547,-50.38672 -57.26172,-50.52735 -67.91406,-49.23828 -1.73437,0.21093 -2.99609,0.50781 -3.69922,0.69922 l -0.24609,70.3125"
               style="fill:#f0b469;fill-opacity:1;fill-rule:nonzero;stroke:none"
               id="path96" />
          </g>
        </g>
      </g>
      <g
         id="g98">
        <g
           id="g100"
           clip-path="url(#clipPath104)">
          <g
             id="g106"
             transform="matrix(0.13530543,0,0,0.12989906,72.546936,33.814728)">
            <path
               d="m 322.58984,190.86719 268.09766,126.11719 13.60156,0.0469 -281.67187,-141.42187 -0.0274,15.25781"
               style="fill:#d8974e;fill-opacity:1;fill-rule:nonzero;stroke:none"
               id="path108" />
          </g>
        </g>
      </g>
      <g
         id="g110">
        <g
           id="g112"
           clip-path="url(#clipPath116)">
          <g
             id="g118"
             transform="matrix(0.13530543,0,0,0.12989906,72.546936,33.814728)">
            <path
               d="M 21.808594,326.9375 2.082031,336.83984 H 643.73828 L 624.01563,326.9375 H 21.808594"
               style="fill:#c78748;fill-opacity:1;fill-rule:nonzero;stroke:none"
               id="path120" />
          </g>
        </g>
      </g>
      <g
         id="g122">
        <g
           id="g124"
           clip-path="url(#clipPath128)">
          <g
             id="g130"
             transform="matrix(0.13530543,0,0,0.12989906,72.546936,33.814728)">
            <path
               d="M 604.28906,317.03125 H 41.535156 L 21.808594,326.9375 H 624.01563 l -19.72657,-9.90625"
               style="fill:#d8974e;fill-opacity:1;fill-rule:nonzero;stroke:none"
               id="path132" />
          </g>
        </g>
      </g>
      <g
         id="g134">
        <g
           id="g136"
           clip-path="url(#clipPath140)">
          <g
             id="g142"
             transform="translate(116,71)">
            <g
               id="g144" />
            <g
               id="g156">
              <g
                 clip-path="url(#clipPath148)"
                 id="g154">
                <g
                   transform="matrix(0.09956672,0,0,0.09956672,0.6998291,0.6361618)"
                   id="g152">
                  <path
                     d="M 0,0 H 1852 V 256 H 0 Z"
                     style="fill:#ffffff;fill-opacity:1;fill-rule:nonzero;stroke:none"
                     id="path150" />
                </g>
              </g>
            </g>
          </g>
        </g>
      </g>
      <g
         id="g158">
        <g
           id="g160"
           clip-path="url(#clipPath164)">
          <g
             id="g166"
             transform="translate(116,63)">
            <g
               id="g168" />
            <g
               id="g182">
              <g
                 clip-path="url(#clipPath172)"
                 id="g180">
                <g
                   transform="matrix(1.7363293,0,0,1.7363293,0.6998291,2.1775589)"
                   id="g178">
                  <text
                     xml:space="preserve"
                     transform="translate(0,12)"
                     style="font-variant:normal;font-weight:bold;font-size:12px;font-family:CanvaSans;-inkscape-font-specification:CanvaSans-Bold;writing-mode:lr-tb;fill:#000000;fill-opacity:1;fill-rule:nonzero;stroke:none"
                     id="text176"><tspan
                       x="0 7.2597656 14.36133 22.054686 28.763672 38.097656 47.431641 56.513672 63.615234 70.541008 74.466789"
                       y="0"
                       id="tspan174">STYLOOUTFIT</tspan></text>
                </g>
              </g>
            </g>
          </g>
        </g>
      </g>
      <g
         id="g184">
        <g
           id="g186"
           clip-path="url(#clipPath190)">
          <g
             id="g192"
             transform="translate(117,90)">
            <g
               id="g194" />
            <g
               id="g214">
              <g
                 clip-path="url(#clipPath198)"
                 id="g212">
                <g
                   id="g210">
                  <g
                     clip-path="url(#clipPath202)"
                     id="g208">
                    <g
                       transform="matrix(-0.27729553,0,0,0.27729553,139.79675,0.38028717)"
                       id="g206">
                      <path
                         d="m 499.577,18.3311 c 0.66299,-0.3628 0.59899,-1.335599 -0.141,-1.4922 C 376.45499,-9.1934996 64.138298,1.7388201 1.47216,14.0206 c -1.98295696,0.3887 -1.86962901,2.895 0.07221,3.453901 L 16.266399,21.712 C 21.2484,23.146 26.4799,23.2491 31.578501,22.3106 114.409,7.0642099 406.37299,1.00168 496.87701,18.7712 c 0.947,0.1861 1.85199,0.0233 2.69999,-0.4401 z"
                         style="fill:#4169e1;fill-opacity:1;fill-rule:nonzero;stroke:none"
                         id="path204" />
                    </g>
                  </g>
                </g>
              </g>
            </g>
          </g>
        </g>
      </g>
    </g>
    <path
       d="M 17.396894,18.943632 H 38.233022 V 29.804463 H 17.396894 Z"
       style="fill:#000000;fill-opacity:0;fill-rule:nonzero;stroke:none"
       id="path216" />
    <path
       d="m 28.00796,14.673888 h 33.99386 v 2.167108 H 28.00796 Z"
       style="fill:#000000;fill-opacity:0;fill-rule:nonzero;stroke:none"
       id="path218" />
  </g>
</svg>
